<?xml version="1.0" encoding="UTF-8"?>
<!DOCTYPE svg PUBLIC "-//W3C//DTD SVG 1.1//EN" "http://www.w3.org/Graphics/SVG/1.1/DTD/svg11.dtd">
<!-- Creator: CorelDRAW X7 -->
<svg xmlns="http://www.w3.org/2000/svg" xml:space="preserve" width="7.2365mm" height="6.3025mm" version="1.1" style="shape-rendering:geometricPrecision; text-rendering:geometricPrecision; image-rendering:optimizeQuality; fill-rule:evenodd; clip-rule:evenodd"
viewBox="0 0 724 630"
 xmlns:xlink="http://www.w3.org/1999/xlink" fill="currentColor">
 <defs>
  <style type="text/css">
   <![CDATA[
    .fil0 {fill:white}
   ]]>
  </style>
 </defs>
 <g id="Layer_x0020_1">
  <metadata id="CorelCorpID_0Corel-Layer"/>
  <path class="fil0" d="M416 322c2,-3 2,-3 0,-8 -2,-5 -5,-14 -7,-19 -9,-23 -106,-58 -131,-64 -65,-16 -241,-28 -275,28 -24,40 91,76 110,87 62,33 52,50 87,101 17,26 49,38 77,17 35,-26 119,-110 139,-142zm-18 240c7,8 -9,21 -16,13 -6,-7 10,-20 16,-13zm-119 -60c0,7 -15,8 -15,1 -1,-7 14,-8 15,-1zm186 45c4,6 -9,14 -12,8 -4,-6 8,-14 12,-8zm-79 49c-2,9 -19,5 -17,-3 1,-8 18,-5 17,3zm-44 -8c4,-2 8,-1 10,1 1,3 0,6 -4,9 -3,2 -7,2 -9,-1 -2,-2 0,-6 3,-9zm104 -29c4,6 -9,14 -13,8 -4,-6 9,-14 13,-8zm7 21c1,9 -17,11 -19,2 -1,-8 17,-11 19,-2zm-160 -62c7,6 -6,19 -12,13 -7,-6 6,-19 12,-13zm43 61c-9,4 -16,-13 -8,-17 8,-4 16,13 8,17zm30 -6c2,4 1,9 -2,10 -3,1 -7,-1 -9,-6 -2,-4 0,-8 3,-10 3,-1 7,2 8,6zm64 -1c1,5 -6,8 -8,3 -2,-4 6,-7 8,-3zm-13 -10c2,4 -5,7 -7,2 -2,-4 6,-7 7,-2zm-90 24c1,5 -6,8 -8,3 -1,-4 6,-7 8,-3zm137 -20c1,5 -6,7 -8,3 -2,-5 6,-8 8,-3zm-124 43c1,4 -6,7 -8,2 -2,-4 6,-7 8,-2zm21 0c1,2 0,5 -2,5 -2,1 -5,0 -5,-2 -2,-4 5,-7 7,-3zm-87 -71c2,4 -5,7 -7,2 -2,-4 6,-7 7,-2zm-5 -21c2,4 -6,7 -7,2 -2,-4 5,-7 7,-2zm138 64c2,6 -7,9 -9,4 -2,-6 7,-10 9,-4zm-98 -34c-10,0 -11,-22 0,-23 11,0 11,23 0,23zm-15 -3c2,5 -5,8 -7,3 -2,-5 6,-7 7,-3zm304 -59c1,10 21,10 21,0 0,-10 -21,-10 -21,0zm53 -123c5,6 17,-3 12,-9 -4,-5 -16,3 -12,9zm-114 154c1,7 16,5 15,-2 -1,-7 -16,-5 -15,2zm94 -23c-3,3 -4,8 -1,10 3,3 7,1 10,-2 3,-4 4,-9 1,-11 -3,-2 -7,-1 -10,3zm27 -24c-4,1 -7,4 -6,7 1,7 15,5 14,-2 0,-3 -4,-5 -8,-5zm-98 44c1,7 16,5 15,-2 -1,-7 -16,-5 -15,2zm8 20c5,8 21,-2 16,-9 -5,-8 -20,2 -16,9zm92 -155c-5,0 -9,2 -10,6 -1,8 18,10 19,2 0,-3 -2,-6 -6,-7 -1,-1 -2,-1 -3,-1zm-3 79c9,-2 4,-20 -5,-18 -8,3 -3,21 5,18zm-27 16c1,4 5,7 8,6 4,-1 5,-6 4,-10 -2,-5 -6,-7 -9,-6 -3,1 -5,5 -3,10zm-49 40c2,5 9,2 8,-3 -2,-4 -10,-2 -8,3zm2 -16c2,4 10,2 8,-3 -2,-4 -9,-2 -8,3zm86 -39c2,4 9,1 7,-3 -1,-5 -9,-2 -7,3zm-118 72c2,4 9,2 7,-3 -1,-4 -9,-2 -7,3zm122 -47c2,5 10,2 8,-3 -2,-4 -9,-2 -8,3zm-16 14c2,5 10,2 8,-2 -2,-5 -9,-2 -8,2zm21 -111c1,5 9,2 7,-2 -2,-5 -9,-2 -7,2zm-10 -19c2,5 9,2 8,-3 -2,-4 -9,-1 -8,3zm-64 138c2,6 11,2 9,-3 -2,-6 -11,-3 -9,3zm53 -89c8,-7 -6,-24 -14,-18 -9,7 5,25 14,18zm10 -11c1,4 9,1 7,-3 -2,-5 -9,-2 -7,3zm-630 -153c8,-1 15,4 16,10 0,6 -6,11 -15,12 -8,0 -15,-4 -15,-10 0,-6 6,-12 14,-12zm139 92c1,14 -28,16 -29,2 -1,-14 29,-16 29,-2zm-109 -63c1,7 -14,8 -15,1 0,-7 15,-8 15,-1zm84 44c1,7 -14,8 -15,1 0,-7 15,-8 15,-1zm-15 10c1,8 -14,8 -15,1 0,-7 15,-8 15,-1zm106 108c0,7 -15,8 -15,1 0,-7 14,-8 15,-1zm-195 -160c4,6 -9,14 -13,8 -4,-6 9,-14 13,-8zm34 20c4,6 -9,14 -12,8 -4,-6 8,-14 12,-8zm121 93c4,6 -9,14 -13,8 -4,-6 9,-14 13,-8zm5 18c4,7 -9,14 -13,8 -4,-6 9,-14 13,-8zm55 16c4,6 -8,14 -12,8 -4,-6 9,-14 12,-8zm16 3c8,-5 14,4 6,9 -9,5 -14,-4 -6,-9zm-180 -146c2,9 -16,12 -18,3 -1,-9 17,-11 18,-3zm32 24c7,6 -6,19 -12,13 -7,-6 6,-19 12,-13zm93 102c-3,7 -18,-1 -14,-8 3,-7 18,1 14,8zm15 18c-8,2 -14,-13 -6,-16 7,-3 13,13 6,16zm32 21c4,5 -7,12 -10,6 -4,-5 7,-12 10,-6zm-153 -153c2,6 -12,11 -14,4 -3,-6 11,-11 14,-4zm-97 -28c2,4 -6,7 -8,3 -1,-5 6,-8 8,-3zm6 12c2,4 -5,7 -7,2 -2,-4 6,-7 7,-2zm28 16c2,5 -5,7 -7,3 -2,-5 6,-8 7,-3zm54 26c1,2 0,3 -2,5 -2,2 -4,0 -5,-2 -2,-5 6,-8 7,-3zm-12 -16c2,4 -6,7 -8,2 -1,-4 6,-7 8,-2zm-28 -14c2,5 -5,7 -7,3 -2,-5 6,-8 7,-3zm100 68c2,5 -5,8 -7,3 -2,-4 6,-7 7,-3zm21 24c2,5 -6,8 -8,3 -1,-4 6,-7 8,-3zm-8 -11c2,6 -8,9 -10,3 -2,-5 8,-9 10,-3zm37 6c-1,11 -23,10 -23,-1 1,-11 23,-10 23,1zm5 45c2,5 -6,8 -7,3 -2,-5 5,-7 7,-3zm-4 13c2,5 -6,7 -8,3 -1,-5 6,-8 8,-3zm33 11c2,4 -6,7 -7,2 -2,-4 6,-7 7,-2zm422 -418c9,11 32,-6 24,-18 -9,-11 -32,6 -24,18zm-42 143c9,11 33,-6 24,-18 -8,-11 -32,6 -24,18zm43 -119c4,6 16,-3 12,-9 -4,-6 -16,3 -12,9zm-36 88c4,5 16,-3 12,-9 -4,-6 -16,3 -12,9zm18 -2c4,6 16,-3 12,-9 -4,-5 -16,3 -12,9zm-11 151c4,5 16,-4 12,-9 -5,-6 -17,3 -12,9zm46 -248c1,7 16,5 15,-2 -1,-7 -16,-5 -15,2zm-13 37c1,7 15,5 14,-2 -1,-7 -15,-5 -14,2zm-33 149c1,7 16,5 15,-2 -1,-8 -16,-6 -15,2zm8 17c1,7 16,5 15,-2 -1,-7 -16,-5 -15,2zm-32 48c1,7 15,5 14,-2 -1,-7 -15,-5 -14,2zm-17 18c1,7 16,5 15,-2 -1,-7 -16,-5 -15,2zm50 -233c5,8 21,-2 16,-10 -5,-7 -20,3 -16,10zm-9 38c-1,9 17,11 18,2 1,-8 -17,-10 -18,-2zm-6 138c7,4 14,-11 7,-15 -8,-4 -15,12 -7,15zm1 23c8,-2 2,-18 -6,-16 -7,3 -2,19 6,16zm-12 37c1,7 14,5 13,-1 -1,-6 -14,-5 -13,1zm20 -216c2,7 16,2 13,-5 -2,-7 -16,-1 -13,5zm56 -83c2,5 9,2 8,-3 -2,-4 -10,-2 -8,3zm3 13c1,5 9,2 7,-3 -2,-4 -9,-1 -7,3zm-11 31c1,4 9,2 7,-3 -2,-5 -9,-2 -7,3zm-25 54c2,5 9,2 8,-2 -2,-5 -10,-2 -8,2zm-1 -20c2,4 9,2 7,-3 -1,-5 -9,-2 -7,3zm12 -28c2,4 10,2 8,-3 -2,-5 -9,-2 -8,3zm-32 116c1,5 9,2 7,-2 -1,-5 -9,-2 -7,2zm-1 32c2,4 10,2 8,-3 -2,-4 -9,-2 -8,3zm-1 -14c2,5 12,2 10,-4 -2,-5 -12,-2 -10,4zm-24 28c7,8 24,-7 17,-15 -8,-8 -24,7 -17,15zm25 38c1,5 9,2 7,-2 -1,-5 -9,-2 -7,2zm11 7c2,5 9,2 8,-2 -2,-5 -10,-2 -8,2zm-18 30c1,5 9,2 7,-3 -2,-4 -9,-2 -7,3zm-197 30c-1,-1 -1,-1 2,5 12,19 24,38 34,58 12,26 49,132 83,103 20,-17 -10,-48 -20,-63 -4,-6 -4,-6 2,0 13,14 32,38 54,33 13,-3 32,-15 32,-30 -1,-14 -7,-18 -19,-24 -3,-1 -63,-24 -45,-21 17,3 55,11 67,-8 21,-35 -75,-43 -100,-47 -25,-4 -60,-6 -84,-12 -1,0 -1,0 12,4 4,1 75,18 56,15 -8,-1 -23,-4 -31,-6 -20,-3 37,22 41,24 24,13 -30,-11 -32,-12 -9,-3 -9,-3 -2,3 2,2 47,41 27,27 -8,-5 -24,-16 -32,-22 -18,-12 13,31 17,39 15,27 -51,-70 -36,-41 2,3 31,55 16,32 -10,-15 -29,-46 -42,-57zm-28 12c0,-1 0,-1 1,6 6,36 12,65 22,101 5,18 18,69 11,85 -7,17 -33,18 -39,-3 -3,-10 -4,-33 -6,-45 -1,-7 -1,-7 -1,1 -1,14 -2,40 -10,52 -9,12 -31,16 -45,13 -19,-5 -19,-22 -12,-37 2,-3 34,-60 22,-46 -13,14 -36,45 -58,37 -18,-6 -14,-25 -5,-37 16,-21 36,-44 53,-63 17,-20 44,-44 59,-64 0,-1 0,-1 -8,10 -8,11 -23,33 -31,44 -19,26 15,-16 18,-20 5,-6 5,-6 0,4 -4,10 -12,31 -17,41 -10,25 16,-27 18,-30 4,-8 4,-8 3,1 0,3 -10,62 -3,38 2,-9 8,-28 10,-37 3,-9 3,-9 5,0 0,4 10,68 9,37 -1,-12 -1,-36 -2,-48 0,-12 0,-12 2,-3 0,3 11,62 8,35 -1,-11 -3,-33 -4,-46 -1,-13 -1,-17 -1,-20 0,-3 1,-5 1,-6zm40 -35c-4,1 -4,1 2,2 30,2 47,-2 76,-5 27,-2 61,5 80,-20 9,-12 11,-24 8,-39 -4,-23 -20,-9 -34,-5 -1,1 26,-13 30,-30 10,-44 -33,-17 -50,-4 -2,1 -2,1 2,-2 8,-8 96,-98 56,-107 -16,-3 -47,27 -58,37 -4,4 -4,4 -1,-1 19,-27 37,-44 65,-64 10,-7 42,-25 26,-39 -12,-9 -55,22 -65,30 -76,55 -144,130 -163,225 -1,4 -1,5 -1,5 0,0 17,-35 20,-41 9,-17 19,-34 29,-51 5,-8 -48,100 -27,67 15,-26 64,-96 63,-95 0,1 -58,99 -63,107 -2,2 -2,2 12,-12 14,-13 42,-40 56,-54 41,-40 -74,82 -60,72 34,-21 64,-38 101,-53 5,-2 5,-2 -3,3 -35,20 -68,41 -100,65 -8,7 83,-26 106,-31 4,-2 4,-2 -6,2 -27,11 -53,20 -80,30 -8,3 -16,6 -21,8zm-65 23c5,-1 5,-1 0,3 -31,30 -123,112 -160,65 -4,-5 -15,-19 -7,-24 3,-3 10,-6 15,-7 5,-2 8,-3 9,-3 1,-1 0,-1 -3,-1 -14,2 -26,6 -39,-3 -5,-4 -12,-11 -12,-18 -2,-12 25,-14 33,-16 6,-1 11,-1 14,-2 2,0 2,0 -2,0 -30,-2 -101,-3 -113,-37 -8,-23 58,-18 68,-18 7,1 7,1 2,-1 -33,-9 -58,-10 -91,-8 -8,1 -71,0 -40,-19 63,-39 300,8 337,59 0,0 -72,-31 -97,-39 -16,-6 55,27 63,31 37,18 -121,-39 -108,-29 0,0 108,38 117,41 12,3 -152,-14 -94,-6 4,1 114,13 91,16 -39,5 -73,11 -111,24 -18,6 98,-13 122,-14 11,-1 -80,33 -101,43 -15,8 86,-30 107,-37zm40 -20c-4,-1 -4,-1 -6,-6 -1,-5 -5,-14 -6,-19 -8,-23 44,-113 59,-134 39,-53 167,-176 228,-155 44,15 -20,117 -28,137 -26,66 -7,73 -1,134 3,31 -14,61 -48,62 -44,3 -162,-7 -198,-19zm-1 5c5,26 35,62 46,90 16,36 29,75 46,110 11,23 24,39 52,34 23,-4 24,-33 30,-32 28,5 65,7 81,-22 15,-27 -17,-71 -17,-71 18,-12 29,-21 26,-45 -2,-17 -18,-43 -37,-44 -110,-6 -140,-4 -226,-22 -1,0 -2,-1 -1,2zm-12 4c3,6 52,191 58,214 6,23 6,44 -18,58 -20,11 -40,-10 -44,-5 -18,22 -45,47 -76,35 -29,-11 -32,-65 -33,-65 -21,3 -35,3 -48,-18 -10,-14 -14,-44 0,-57 80,-75 105,-93 159,-162 0,-1 0,-2 2,0zm61 149c-3,1 -21,-43 -23,-48 -10,-27 -44,-132 -51,-140 -4,-5 -5,-8 -8,-12 -1,-2 -4,-2 -5,-5 -1,-3 5,-4 1,-8 -3,-3 -8,-5 -5,-10 1,-3 -12,-18 -30,-36 -44,-44 -73,-71 -124,-103 -13,-8 -15,-27 11,-5 43,34 84,71 121,111 2,3 25,30 27,30 0,0 6,-2 7,-2 1,-1 1,-37 1,-40 2,-55 10,-109 20,-163 7,-34 17,-19 13,-4 -19,58 -25,98 -30,161 -2,25 -2,43 1,45 5,2 3,7 2,11 -1,5 5,2 6,5 1,2 -1,5 0,7 0,5 2,8 2,15 -1,10 41,113 50,140 2,5 17,50 14,51z"/>
 </g>
</svg>
